# xmcd CD database file
#
# Track frame offsets:
#	150
#	44738
#	88648
#	137742
#	208715
#	215884
#	218289
#	222020
#	225869
#	228341
#	231791
#	239374
#	244525
#	256425
#	267929
#	274633
#	283062
#
# Disc length: 4490 seconds
#
# Revision: 3
# Processed by: cddbd v1.5.2PL0 Copyright (c) Steve Scherf et al.
# Submitted via: CDex 1.51
#
DISCID=f8118811
DTITLE=Various Artist - Yehudi Menuhin - Vol.08
DYEAR=1900
DGENRE=Classique
TTITLE0=Dvorák - Violin Concerto in A minor, Op.53 - I. Allegro ma non troppo  [Orch. Conservatoire de Paris, George Enescu - 1936] 
TTITLE1=Dvorák - Violin Concerto in A minor, Op.53 - II. Adaigo ma non troppo
TTITLE2=Dvorák - Violin Concerto in A minor, Op.53 - III. Allegro giocosco, ma non troppo
TTITLE3=Tchaikovsky - Piano Trio in A minor Op.50 - Pezzo elegiaco  [Hephzibah Menuhin, piano and Maurice Eisenburg, violoncello - 1939 ]
TTITLE4=Tchaikovsky - Piano Trio in A minor Op.50 - Tema
TTITLE5=Tchaikovsky - Piano Trio in A minor Op.50 - Variazione I
TTITLE6=Tchaikovsky - Piano Trio in A minor Op.50 - Variazione II
TTITLE7=Tchaikovsky - Piano Trio in A minor Op.50 - Variazione III
TTITLE8=Tchaikovsky - Piano Trio in A minor Op.50 - Variazione IV
TTITLE9=Tchaikovsky - Piano Trio in A minor Op.50 - Variazione V
TTITLE10=Tchaikovsky - Piano Trio in A minor Op.50 - Variazione VI
TTITLE11=Tchaikovsky - Piano Trio in A minor Op.50 - Variazione VII
TTITLE12=Tchaikovsky - Piano Trio in A minor Op.50 - Variazione VIII
TTITLE13=Tchaikovsky - Piano Trio in A minor Op.50 - Variazione IX
TTITLE14=Tchaikovsky - Piano Trio in A minor Op.50 - Variazione X
TTITLE15=Tchaikovsky - Piano Trio in A minor Op.50 - Variazione XI
TTITLE16=Tchaikovsky - Piano Trio in A minor Op.50 - Variazione finale e coda
EXTD=
EXTT0=
EXTT1=
EXTT2=
EXTT3=
EXTT4=
EXTT5=
EXTT6=
EXTT7=
EXTT8=
EXTT9=
EXTT10=
EXTT11=
EXTT12=
EXTT13=
EXTT14=
EXTT15=
EXTT16=
PLAYORDER=
